<?xml version="1.0" encoding="UTF-8" standalone="no"?>
<svg
   viewBox="0 0 24 24"
   xmlns="http://www.w3.org/2000/svg">
  <path
     d="M 10.989,0 C 4.9170002,0 0,4.9280002 0,11 c 0,6.072001 4.9170002,11.000001 10.989,11.000001 6.083001,0 11.011001,-4.928 11.011001,-11.000001 0,-6.0719998 -4.928,-11 -11.011001,-11 z m 7.623001,6.6000002 h -3.245 c -0.352,-1.375 -0.858001,-2.6950001 -1.518001,-3.9160001 2.024001,0.693 3.707001,2.1010001 4.763001,3.9160001 z M 11,2.2440001 c 0.913,1.32 1.628,2.7830001 2.101,4.3560001 H 8.8990003 C 9.3720003,5.0270002 10.087,3.5640001 11,2.2440001 Z M 2.4860001,13.2 c -0.176,-0.704 -0.286,-1.441 -0.286,-2.2 0,-0.759 0.11,-1.4959997 0.286,-2.1999997 h 3.7180001 c -0.088,0.726 -0.154,1.4519997 -0.154,2.1999997 0,0.748 0.066,1.474 0.154,2.2 z m 0.902,2.200001 h 3.2450001 c 0.352,1.375 0.8580001,2.695 1.5180001,3.916 -2.0240001,-0.693 -3.7070002,-2.09 -4.7630002,-3.916 z M 6.6330002,6.6000002 H 3.3880001 c 1.056,-1.826 2.7390001,-3.2230001 4.7630002,-3.9160001 -0.66,1.221 -1.1660001,2.5410001 -1.5180001,3.9160001 z M 11,19.756001 c -0.913,-1.32 -1.6279997,-2.783 -2.1009997,-4.356 H 13.101 c -0.473,1.573 -1.188,3.036 -2.101,4.356 z M 13.574,13.2 H 8.4260003 c -0.099,-0.726 -0.176,-1.452 -0.176,-2.2 0,-0.748 0.077,-1.4849997 0.176,-2.1999997 H 13.574 C 13.673,9.5150003 13.75,10.252 13.75,11 c 0,0.748 -0.077,1.474 -0.176,2.2 z m 0.275,6.116001 c 0.66,-1.221 1.166001,-2.541 1.518001,-3.916 h 3.245 c -1.056,1.815 -2.739,3.223 -4.763001,3.916 z M 15.796001,13.2 c 0.088,-0.726 0.154,-1.452 0.154,-2.2 0,-0.748 -0.066,-1.4739997 -0.154,-2.1999997 h 3.718 c 0.176,0.704 0.286,1.4409997 0.286,2.1999997 0,0.759 -0.11,1.496 -0.286,2.2 z"
     id="path4"
/>
</svg>
